<?xml version="1.0" encoding="iso-8859-1"?>
<!-- Generator: Adobe Illustrator 16.0.0, SVG Export Plug-In . SVG Version: 6.00 Build 0)  -->
<!DOCTYPE svg PUBLIC "-//W3C//DTD SVG 1.1//EN" "http://www.w3.org/Graphics/SVG/1.1/DTD/svg11.dtd">
<svg version="1.1" id="Layer_1" xmlns="http://www.w3.org/2000/svg" xmlns:xlink="http://www.w3.org/1999/xlink" x="0px" y="0px"
	 width="30.211px" height="31.642px" viewBox="0 0 30.211 31.642" style="enable-background:new 0 0 30.211 31.642;"
	 xml:space="preserve">
<g>
	<rect y="29.696" width="30.211" height="1.945"/>
	<circle cx="15.818" cy="9.143" r="2.583"/>
	<polygon points="15.714,27.629 15.841,28.42 16.57,28.304 17.402,28.026 17.432,28.166 18.378,28.015 18.236,27.134 18.221,27.038 
		18.205,26.93 18.214,26.928 17.362,23.845 17.194,20.021 17.479,19.979 17.479,12.107 14.939,12.107 13.788,12.107 13.887,15.807 
		14.82,15.646 14.82,13.003 14.82,12.748 15.075,12.748 16.527,12.748 16.783,12.748 16.783,13.003 16.783,16.815 16.774,17.07 
		16.774,17.08 16.563,17.117 13.972,17.57 13.929,17.578 13.929,19.979 14.156,19.983 13.373,22.93 12.748,27.086 12.729,27.257 
		12.58,27.239 11.695,27.325 11.602,28.122 12.337,28.208 13.211,28.167 13.205,28.31 14.153,28.42 14.258,27.532 14.269,27.438 
		14.287,27.284 14.299,27.286 14.918,23.488 15.552,21.338 15.775,23.897 16.691,27.282 16.543,27.306 	"/>
	<polygon points="16.519,16.865 16.519,16.815 16.527,16.815 16.527,13.003 15.075,13.003 15.075,15.86 13.893,16.064 
		12.089,16.375 12.309,17.599 13.928,17.318 	"/>
	<path d="M5.298,8.299c2.329,0.516,5.688,0.798,5.723,0.802l0.504,0.041l-1.3-1.94c1.433-0.886,2.228-2.163,2.136-3.459
		c-0.16-2.285-2.995-3.954-6.318-3.721C2.718,0.255,0.145,2.305,0.306,4.59C0.425,6.271,2.244,7.622,5.298,8.299z M6.077,0.508
		c3.055-0.215,5.655,1.251,5.797,3.269c0.083,1.17-0.708,2.341-2.115,3.135L9.53,7.04l1.022,1.527
		c-1.025-0.1-3.39-0.354-5.149-0.745c-1.338-0.296-4.465-1.208-4.61-3.266C0.651,2.539,3.021,0.723,6.077,0.508z"/>
	<circle cx="26.335" cy="8.995" r="2.588"/>
	<polygon points="23.553,27.923 23.545,28.063 24.496,28.177 24.601,27.286 24.611,27.191 24.63,27.038 24.642,27.04 25.429,23.442 
		23.82,23.329 23.087,26.839 23.069,27.012 22.92,26.993 22.032,27.079 21.94,27.878 22.676,27.964 	"/>
	<polygon points="26.231,27.516 26.359,28.311 27.09,28.193 27.923,27.916 27.953,28.054 28.901,27.903 28.759,27.021 
		28.743,26.924 28.727,26.816 28.735,26.814 27.883,23.725 27.714,19.894 28,19.853 28,11.965 25.456,11.965 24.302,11.965 
		24.38,16.296 25.403,12.23 25.656,12.314 27.259,12.72 27.436,12.763 27.392,12.941 25.696,19.663 25.652,19.84 25.473,19.793 
		25.431,19.775 25.426,19.943 26.957,20.016 26.74,23.504 26.249,23.483 27.209,27.169 27.063,27.193 	"/>
	<path d="M26.672,20.204l-1.472-0.087l0.03-0.601l0.229,0.061l1.666-6.617l-1.475-0.385l-1.203,4.678v0.07l-0.463,1.867l0.39,0.102
		l-0.358,0.133l-0.038,0.625l-1.654-0.117l-0.165,3.073l4.34,0.291L26.672,20.204z M24.838,20.022l-0.485-0.031l0.016-0.287
		l0.485,0.029L24.838,20.022z"/>
</g>
<g>
</g>
<g>
</g>
<g>
</g>
<g>
</g>
<g>
</g>
<g>
</g>
<g>
</g>
<g>
</g>
<g>
</g>
<g>
</g>
<g>
</g>
<g>
</g>
<g>
</g>
<g>
</g>
<g>
</g>
</svg>
