<?xml version="1.0" encoding="iso-8859-1"?>
<!-- Generator: Adobe Illustrator 16.0.0, SVG Export Plug-In . SVG Version: 6.00 Build 0)  -->
<!DOCTYPE svg PUBLIC "-//W3C//DTD SVG 1.1//EN" "http://www.w3.org/Graphics/SVG/1.1/DTD/svg11.dtd">
<svg version="1.1" id="Layer_1" xmlns="http://www.w3.org/2000/svg" xmlns:xlink="http://www.w3.org/1999/xlink" x="0px" y="0px"
	 width="30.498px" height="30.459px" viewBox="0 0 30.498 30.459" style="enable-background:new 0 0 30.498 30.459;"
	 xml:space="preserve">
<g>
	<circle cx="15.706" cy="3.62" r="3.62"/>
	<polygon points="19.332,7.783 18.44,7.783 17.104,7.783 15.769,9.382 14.389,7.783 12.978,7.783 11.973,7.783 11.196,7.783 
		10.937,14.186 20.204,14.186 20.021,7.783 	"/>
	<circle cx="4.769" cy="19.894" r="3.619"/>
	<polygon points="8.396,24.058 7.503,24.058 6.167,24.058 4.832,25.657 3.453,24.058 2.042,24.058 1.035,24.058 0.258,24.058 
		0,30.459 9.268,30.459 9.084,24.058 	"/>
	<circle cx="25.999" cy="19.748" r="3.619"/>
	<polygon points="30.314,23.912 29.625,23.912 28.733,23.912 27.397,23.912 26.062,25.511 24.682,23.912 23.271,23.912 
		22.265,23.912 21.489,23.912 21.23,30.314 30.498,30.314 	"/>
	<rect x="10.471" y="25.994" width="1.346" height="0.644"/>
	<rect x="18.544" y="25.994" width="1.345" height="0.644"/>
	<rect x="15.853" y="25.994" width="1.346" height="0.644"/>
	<rect x="13.162" y="25.994" width="1.345" height="0.644"/>
	<rect x="4.312" y="8.056" width="0.645" height="1.293"/>
	<rect x="4.312" y="5.471" width="0.645" height="1.293"/>
	<rect x="4.312" y="10.642" width="0.645" height="1.293"/>
	<rect x="4.312" y="13.228" width="0.645" height="1.293"/>
	<polygon points="5.091,3.372 5.414,3.372 5.414,2.728 4.447,2.728 4.447,3.694 5.091,3.694 	"/>
	<rect x="22.904" y="2.728" width="1.346" height="0.645"/>
	<rect x="20.213" y="2.728" width="1.345" height="0.645"/>
	<rect x="6.759" y="2.728" width="1.346" height="0.645"/>
	<rect x="9.45" y="2.728" width="1.345" height="0.645"/>
	<polygon points="25.917,3.694 26.562,3.694 26.562,2.728 25.595,2.728 25.595,3.372 25.917,3.372 	"/>
	<rect x="25.917" y="10.159" width="0.645" height="1.292"/>
	<rect x="25.917" y="4.987" width="0.645" height="1.293"/>
	<rect x="25.917" y="7.573" width="0.645" height="1.293"/>
	<rect x="25.917" y="12.744" width="0.645" height="1.293"/>
</g>
<g>
</g>
<g>
</g>
<g>
</g>
<g>
</g>
<g>
</g>
<g>
</g>
<g>
</g>
<g>
</g>
<g>
</g>
<g>
</g>
<g>
</g>
<g>
</g>
<g>
</g>
<g>
</g>
<g>
</g>
</svg>
