<?xml version="1.0" encoding="iso-8859-1"?>
<!-- Generator: Adobe Illustrator 16.0.0, SVG Export Plug-In . SVG Version: 6.00 Build 0)  -->
<!DOCTYPE svg PUBLIC "-//W3C//DTD SVG 1.1//EN" "http://www.w3.org/Graphics/SVG/1.1/DTD/svg11.dtd">
<svg version="1.1" id="Layer_1" xmlns="http://www.w3.org/2000/svg" xmlns:xlink="http://www.w3.org/1999/xlink" x="0px" y="0px"
	 width="29.909px" height="31.221px" viewBox="0 0 29.909 31.221" style="enable-background:new 0 0 29.909 31.221;"
	 xml:space="preserve">
<g>
	<path d="M29.17,19.07v-1.176L29,17.828c-0.058-0.022-1.439-0.56-3.283-0.56c-1.974,0-3.674,0.602-5.058,1.789
		c-1.384-1.187-3.084-1.789-5.059-1.789c-1.843,0-3.225,0.537-3.284,0.56l-0.169,0.066v1.089c-0.558,0.104-0.905,0.292-0.905,0.597
		c0,1.587,0,11.222,0,11.222h8.265c0.285,0.257,0.704,0.418,1.171,0.418s0.885-0.162,1.171-0.418h8.058c0,0,0-10.665,0-11.222
		C29.909,19.332,29.628,19.171,29.17,19.07z M20.57,29.918c-0.686-0.284-3.05-1.181-5.417-1.181c-0.934,0-1.762,0.143-2.469,0.427
		V18.266c0.412-0.138,1.535-0.462,2.917-0.462c1.817,0,3.379,0.55,4.654,1.622v6.503l0.315-0.347V29.918z M28.635,29.167
		c-0.758-0.306-1.629-0.46-2.592-0.46c-2.367,0-4.618,0.908-5.294,1.205v-4.329l0.314,0.347v-6.503
		c1.276-1.072,2.838-1.622,4.655-1.622c1.378,0,2.504,0.325,2.917,0.462V29.167z"/>
	<path d="M14.626,19.871c-0.042,0.067-0.097,0.122-0.163,0.161c-0.066,0.041-0.141,0.069-0.224,0.086s-0.167,0.025-0.254,0.022
		v0.496h0.561v1.377h0.714v-2.392h-0.563C14.692,19.72,14.668,19.803,14.626,19.871z"/>
	<path d="M17.96,27.231c0.112-0.068,0.23-0.135,0.354-0.199c0.124-0.063,0.237-0.135,0.34-0.215
		c0.103-0.079,0.188-0.171,0.254-0.276c0.066-0.105,0.099-0.235,0.099-0.389c0-0.126-0.023-0.236-0.069-0.331
		c-0.047-0.096-0.113-0.174-0.2-0.235c-0.086-0.063-0.189-0.109-0.31-0.14c-0.12-0.031-0.253-0.046-0.397-0.046
		c-0.161,0-0.305,0.022-0.435,0.068c-0.129,0.046-0.239,0.113-0.328,0.202c-0.09,0.088-0.156,0.196-0.2,0.325
		s-0.061,0.274-0.052,0.44h0.646c-0.004-0.146,0.02-0.265,0.074-0.355c0.054-0.092,0.149-0.136,0.287-0.136
		c0.08,0,0.148,0.021,0.204,0.063c0.056,0.043,0.084,0.119,0.084,0.229c0,0.043-0.011,0.082-0.033,0.116
		c-0.021,0.035-0.049,0.066-0.082,0.094c-0.034,0.027-0.069,0.053-0.107,0.075c-0.038,0.023-0.072,0.044-0.102,0.063
		c-0.076,0.045-0.153,0.092-0.234,0.139c-0.08,0.047-0.158,0.096-0.231,0.148c-0.075,0.052-0.145,0.107-0.209,0.167
		c-0.065,0.06-0.124,0.125-0.174,0.193c-0.06,0.08-0.104,0.169-0.135,0.268s-0.043,0.207-0.037,0.323h2.073v-0.584H17.96V27.231z"/>
	<path d="M25.453,21.408c-0.027-0.04-0.06-0.071-0.094-0.092c-0.035-0.022-0.065-0.039-0.094-0.052
		c-0.029-0.012-0.053-0.021-0.072-0.025c-0.02-0.005-0.029-0.009-0.029-0.013v-0.007c0-0.002,0.017-0.007,0.05-0.014
		c0.033-0.007,0.069-0.027,0.108-0.059c0.039-0.032,0.075-0.082,0.108-0.149s0.05-0.165,0.05-0.291c0-0.05-0.016-0.11-0.047-0.182
		c-0.031-0.071-0.083-0.139-0.155-0.203c-0.072-0.064-0.167-0.119-0.285-0.164c-0.118-0.044-0.264-0.066-0.439-0.066
		c-0.135,0-0.262,0.016-0.381,0.049c-0.119,0.034-0.224,0.083-0.315,0.15c-0.092,0.068-0.164,0.155-0.217,0.257
		c-0.052,0.104-0.08,0.226-0.083,0.368h0.646c-0.002-0.05,0.005-0.094,0.022-0.13c0.017-0.037,0.041-0.068,0.07-0.093
		c0.031-0.026,0.066-0.044,0.107-0.057c0.042-0.013,0.085-0.02,0.131-0.02c0.034,0,0.07,0.005,0.108,0.013
		c0.038,0.007,0.071,0.02,0.102,0.035c0.029,0.017,0.054,0.039,0.073,0.066c0.02,0.028,0.03,0.06,0.03,0.095
		c0,0.047-0.011,0.084-0.031,0.113c-0.021,0.028-0.048,0.051-0.08,0.067c-0.032,0.016-0.067,0.025-0.104,0.03
		c-0.038,0.005-0.075,0.008-0.112,0.008c-0.046,0-0.085-0.001-0.116-0.006c-0.031-0.002-0.059-0.006-0.084-0.009v0.468
		c0.025-0.005,0.052-0.008,0.081-0.012c0.029-0.003,0.068-0.005,0.119-0.005c0.039,0,0.078,0.003,0.117,0.009
		c0.039,0.005,0.073,0.017,0.104,0.036c0.029,0.019,0.054,0.044,0.072,0.075c0.019,0.032,0.028,0.075,0.028,0.127
		c0,0.099-0.029,0.168-0.086,0.209c-0.057,0.039-0.135,0.06-0.233,0.06c-0.06,0-0.115-0.007-0.164-0.024
		c-0.049-0.016-0.089-0.044-0.122-0.082c-0.066-0.063-0.098-0.158-0.093-0.286h-0.653c-0.002,0.03-0.002,0.073-0.001,0.13
		c0.001,0.059,0.011,0.122,0.03,0.191c0.02,0.07,0.051,0.142,0.093,0.213c0.043,0.073,0.104,0.138,0.182,0.198
		c0.079,0.06,0.18,0.108,0.305,0.146c0.124,0.039,0.275,0.057,0.453,0.057c0.196,0,0.357-0.024,0.487-0.077
		c0.129-0.051,0.232-0.115,0.309-0.19c0.077-0.076,0.131-0.158,0.162-0.245c0.031-0.086,0.047-0.167,0.047-0.24
		c0-0.089-0.01-0.164-0.029-0.225C25.505,21.499,25.481,21.448,25.453,21.408z"/>
	<path d="M5.559,13.226v-1.201h3.226v2.893l3.648,1.916c0,0,1.251-0.433,2.465-0.481c1.213-0.049,1.483,0.048,1.483,0.048
		l3.709-2.014v-2.362h3.225v0.611l3.487-1.894l0,0l0.003-0.002l0.613-0.409v-4.4h-5.254C21.826,2.614,18.469,0,14.385,0
		C10.3,0,6.942,2.614,6.604,5.932H0v4.4l0.822,0.411L5.559,13.226z M14.385,1.848c3.048,0,5.566,1.787,5.919,4.083H8.465
		C8.818,3.635,11.335,1.848,14.385,1.848z"/>
	<polygon points="8.784,16.559 5.559,16.559 5.559,13.748 0.822,11.264 0.822,22.77 10.526,22.77 10.526,16.353 8.784,15.439 	"/>
	<path d="M17.188,16.477c0,0,2.311,0.212,3.659,1.425c0.635-0.479,2.255-1.398,3.673-1.598c1.204-0.169,2.282-0.039,2.282-0.039
		v-4.998l-3.487,1.894v2.571v0.826H20.09v-1.646L17.188,16.477z"/>
</g>
<g>
</g>
<g>
</g>
<g>
</g>
<g>
</g>
<g>
</g>
<g>
</g>
<g>
</g>
<g>
</g>
<g>
</g>
<g>
</g>
<g>
</g>
<g>
</g>
<g>
</g>
<g>
</g>
<g>
</g>
</svg>
