<?xml version="1.0" encoding="iso-8859-1"?>
<!-- Generator: Adobe Illustrator 16.0.0, SVG Export Plug-In . SVG Version: 6.00 Build 0)  -->
<!DOCTYPE svg PUBLIC "-//W3C//DTD SVG 1.1//EN" "http://www.w3.org/Graphics/SVG/1.1/DTD/svg11.dtd">
<svg version="1.1" id="Layer_1" xmlns="http://www.w3.org/2000/svg" xmlns:xlink="http://www.w3.org/1999/xlink" x="0px" y="0px"
	 width="31.588px" height="29.08px" viewBox="0 0 31.588 29.08" style="enable-background:new 0 0 31.588 29.08;"
	 xml:space="preserve">
<g>
	<circle cx="25.31" cy="6.062" r="3.772"/>
	<polygon points="28.455,19.153 28.651,19.153 28.722,17.745 28.725,15.853 29.661,18.841 31.588,18.118 28.747,10.821 
		28.732,10.818 28.732,10.775 26.767,10.4 25.375,12.068 23.938,10.4 23.378,10.506 23.378,10.506 21.679,10.821 18.904,18.329 
		19.602,18.59 19.602,19.385 18.724,19.385 18.724,25.559 21.081,25.559 21.081,19.385 20.107,19.385 20.107,18.78 20.83,19.051 
		21.771,15.898 21.797,17.745 21.869,19.153 22.107,19.153 22.107,20.011 22.107,20.646 22.107,27.357 22.105,27.681 21.604,27.681 
		21.604,29.08 22.095,29.08 24.808,29.08 25.313,29.08 25.313,27.681 24.808,27.681 24.808,27.357 24.808,20.646 25.756,20.646 
		26.308,23.991 25.847,25.915 25.313,25.915 25.313,27.314 29.022,27.314 29.022,25.915 28.537,25.915 28.843,23.991 28.455,20.646 
		28.455,20.011 	"/>
	<circle cx="14.715" cy="4.069" r="3.188"/>
	<polygon points="17.373,15.13 17.539,15.13 17.599,13.941 17.602,12.342 18.393,14.867 20.021,14.257 17.619,8.09 17.607,8.088 
		17.607,8.051 15.945,7.735 14.77,9.145 13.556,7.735 13.082,7.824 13.082,7.824 11.646,8.09 9.302,14.434 9.893,14.655 
		9.893,15.326 9.149,15.326 9.149,20.543 11.142,20.543 11.142,15.326 10.319,15.326 10.319,14.815 10.931,15.044 11.724,12.381 
		11.747,13.941 11.808,15.13 12.01,15.13 12.01,15.855 12.01,16.392 12.01,22.064 12.008,22.337 11.584,22.337 11.584,23.52 
		11.998,23.52 14.291,23.52 14.718,23.52 14.718,22.337 14.291,22.337 14.291,22.064 14.291,16.392 15.093,16.392 15.559,19.22 
		15.169,20.846 14.718,20.846 14.718,22.027 17.853,22.027 17.853,20.846 17.442,20.846 17.7,19.22 17.373,16.392 17.373,15.855 	
		"/>
	<circle cx="4.684" cy="2.683" r="2.683"/>
	<polygon points="6.922,11.993 7.062,11.993 7.111,10.992 7.112,9.645 7.78,11.771 9.149,11.258 7.129,6.067 7.119,6.065 
		7.119,6.034 5.721,5.769 4.73,6.955 3.708,5.769 3.311,5.843 3.311,5.843 2.102,6.067 0.128,11.407 0.625,11.594 0.625,12.158 
		0,12.158 0,16.55 1.677,16.55 1.677,12.158 0.984,12.158 0.984,11.729 1.499,11.92 2.167,9.678 2.186,10.992 2.237,11.993 
		2.408,11.993 2.408,12.604 2.408,13.055 2.408,17.829 2.406,18.059 2.048,18.059 2.048,19.054 2.398,19.054 4.328,19.054 
		4.687,19.054 4.687,18.059 4.328,18.059 4.328,17.829 4.328,13.055 5.002,13.055 5.395,15.435 5.066,16.803 4.687,16.803 
		4.687,17.799 7.325,17.799 7.325,16.803 6.979,16.803 7.197,15.435 6.922,13.055 6.922,12.604 	"/>
</g>
<g>
</g>
<g>
</g>
<g>
</g>
<g>
</g>
<g>
</g>
<g>
</g>
<g>
</g>
<g>
</g>
<g>
</g>
<g>
</g>
<g>
</g>
<g>
</g>
<g>
</g>
<g>
</g>
<g>
</g>
</svg>
